<svg xmlns="http://www.w3.org/2000/svg" width="1440" height="900"><path d="M821,500L825,396L723,499Z" fill="#66a2cb" stroke="#66a2cb" stroke-width="1.51"/><path d="M825,396L717,393L723,499Z" fill="#74a8cf" stroke="#74a8cf" stroke-width="1.51"/><path d="M825,396L823,297L717,393Z" fill="#80acd1" stroke="#80acd1" stroke-width="1.51"/><path d="M823,297L721,295L717,393Z" fill="#8bb1d4" stroke="#8bb1d4" stroke-width="1.51"/><path d="M821,500L926,503L825,396Z" fill="#5b9dc8" stroke="#5b9dc8" stroke-width="1.51"/><path d="M825,396L933,394L823,297Z" fill="#75a7ce" stroke="#75a7ce" stroke-width="1.51"/><path d="M823,606L926,503L821,500Z" fill="#4896c3" stroke="#4896c3" stroke-width="1.51"/><path d="M717,393L615,401L723,499Z" fill="#7eacd1" stroke="#7eacd1" stroke-width="1.51"/><path d="M618,292L615,401L717,393Z" fill="#92b5d6" stroke="#92b5d6" stroke-width="1.51"/><path d="M723,499L823,606L821,500Z" fill="#549ac7" stroke="#549ac7" stroke-width="1.51"/><path d="M720,610L823,606L723,499Z" fill="#5298c6" stroke="#5298c6" stroke-width="1.51"/><path d="M926,503L933,394L825,396Z" fill="#5f9ec8" stroke="#5f9ec8" stroke-width="1.51"/><path d="M615,401L611,502L723,499Z" fill="#7aabd1" stroke="#7aabd1" stroke-width="1.51"/><path d="M618,603L720,610L723,499Z" fill="#5e9dc8" stroke="#5e9dc8" stroke-width="1.51"/><path d="M721,295L618,292L717,393Z" fill="#95b6d6" stroke="#95b6d6" stroke-width="1.51"/><path d="M615,401L510,503L611,502Z" fill="#85afd3" stroke="#85afd3" stroke-width="1.51"/><path d="M721,188L618,292L721,295Z" fill="#a2bcda" stroke="#a2bcda" stroke-width="1.51"/><path d="M611,502L618,603L723,499Z" fill="#6ba3cc" stroke="#6ba3cc" stroke-width="1.51"/><path d="M933,394L931,289L823,297Z" fill="#78a8ce" stroke="#78a8ce" stroke-width="1.51"/><path d="M823,297L721,188L721,295Z" fill="#99b7d8" stroke="#99b7d8" stroke-width="1.51"/><path d="M823,606L925,609L926,503Z" fill="#378fc0" stroke="#378fc0" stroke-width="1.51"/><path d="M926,503L1032,498L933,394Z" fill="#5095c4" stroke="#5095c4" stroke-width="1.51"/><path d="M822,709L925,609L823,606Z" fill="#3587bd" stroke="#3587bd" stroke-width="1.51"/><path d="M826,184L721,188L823,297Z" fill="#9bb8d8" stroke="#9bb8d8" stroke-width="1.51"/><path d="M1035,606L1032,498L926,503Z" fill="#388abe" stroke="#388abe" stroke-width="1.51"/><path d="M933,394L1031,290L931,289Z" fill="#74a1cb" stroke="#74a1cb" stroke-width="1.51"/><path d="M1032,498L1033,398L933,394Z" fill="#5795c4" stroke="#5795c4" stroke-width="1.51"/><path d="M618,292L513,393L615,401Z" fill="#9cb8d8" stroke="#9cb8d8" stroke-width="1.51"/><path d="M611,502L513,608L618,603Z" fill="#6fa3cc" stroke="#6fa3cc" stroke-width="1.51"/><path d="M507,295L513,393L618,292Z" fill="#a7bddc" stroke="#a7bddc" stroke-width="1.51"/><path d="M931,289L826,184L823,297Z" fill="#8cb0d3" stroke="#8cb0d3" stroke-width="1.51"/><path d="M720,610L822,709L823,606Z" fill="#448cbf" stroke="#448cbf" stroke-width="1.51"/><path d="M724,714L822,709L720,610Z" fill="#4689be" stroke="#4689be" stroke-width="1.51"/><path d="M513,393L510,503L615,401Z" fill="#91b4d6" stroke="#91b4d6" stroke-width="1.51"/><path d="M613,707L724,714L720,610Z" fill="#528ec0" stroke="#528ec0" stroke-width="1.51"/><path d="M613,707L720,610L618,603Z" fill="#5c95c5" stroke="#5c95c5" stroke-width="1.51"/><path d="M931,289L926,185L826,184Z" fill="#8eb1d3" stroke="#8eb1d3" stroke-width="1.51"/><path d="M1033,398L1031,290L933,394Z" fill="#699bc8" stroke="#699bc8" stroke-width="1.51"/><path d="M1035,184L926,185L931,289Z" fill="#89aad1" stroke="#89aad1" stroke-width="1.51"/><path d="M508,190L507,295L618,292Z" fill="#b5c4df" stroke="#b5c4df" stroke-width="1.51"/><path d="M405,401L408,500L510,503Z" fill="#97b6d7" stroke="#97b6d7" stroke-width="1.51"/><path d="M513,608L613,707L618,603Z" fill="#6798c7" stroke="#6798c7" stroke-width="1.51"/><path d="M510,503L513,608L611,502Z" fill="#7aa8cf" stroke="#7aa8cf" stroke-width="1.51"/><path d="M721,188L616,183L618,292Z" fill="#aec1dd" stroke="#aec1dd" stroke-width="1.51"/><path d="M721,79L616,183L721,188Z" fill="#b2c6e0" stroke="#b2c6e0" stroke-width="1.51"/><path d="M925,609L1035,606L926,503Z" fill="#2f89bd" stroke="#2f89bd" stroke-width="1.51"/><path d="M822,709L931,708L925,609Z" fill="#2680b9" stroke="#2680b9" stroke-width="1.51"/><path d="M829,812L931,708L822,709Z" fill="#2d7caf" stroke="#2d7caf" stroke-width="1.51"/><path d="M931,708L1035,606L925,609Z" fill="#237fb8" stroke="#237fb8" stroke-width="1.51"/><path d="M1032,498L1140,499L1033,398Z" fill="#498bbf" stroke="#498bbf" stroke-width="1.51"/><path d="M616,183L508,190L618,292Z" fill="#b6c5df" stroke="#b6c5df" stroke-width="1.51"/><path d="M510,503L409,602L513,608Z" fill="#7da9cf" stroke="#7da9cf" stroke-width="1.51"/><path d="M405,401L510,503L513,393Z" fill="#99b8d8" stroke="#99b8d8" stroke-width="1.51"/><path d="M405,401L513,393L507,295Z" fill="#a8bedc" stroke="#a8bedc" stroke-width="1.51"/><path d="M826,184L721,79L721,188Z" fill="#a9c2dd" stroke="#a9c2dd" stroke-width="1.51"/><path d="M616,183L514,81L508,190Z" fill="#c3cde5" stroke="#c3cde5" stroke-width="1.51"/><path d="M928,86L826,80L826,184Z" fill="#a0bddb" stroke="#a0bddb" stroke-width="1.51"/><path d="M928,86L826,184L926,185Z" fill="#97b7d8" stroke="#97b7d8" stroke-width="1.51"/><path d="M724,714L829,812L822,709Z" fill="#3c80b1" stroke="#3c80b1" stroke-width="1.51"/><path d="M931,708L1037,710L1035,606Z" fill="#1777b4" stroke="#1777b4" stroke-width="1.51"/><path d="M718,816L829,812L724,714Z" fill="#417ead" stroke="#417ead" stroke-width="1.51"/><path d="M404,290L405,401L507,295Z" fill="#b4c3df" stroke="#b4c3df" stroke-width="1.51"/><path d="M826,80L721,79L826,184Z" fill="#aac2de" stroke="#aac2de" stroke-width="1.51"/><path d="M1031,290L1035,184L931,289Z" fill="#81a4cd" stroke="#81a4cd" stroke-width="1.51"/><path d="M1137,288L1035,184L1031,290Z" fill="#7d9eca" stroke="#7d9eca" stroke-width="1.51"/><path d="M1137,288L1031,290L1033,398Z" fill="#6e97c7" stroke="#6e97c7" stroke-width="1.51"/><path d="M1135,606L1140,499L1032,498Z" fill="#3181b8" stroke="#3181b8" stroke-width="1.51"/><path d="M1140,499L1142,395L1033,398Z" fill="#518cbe" stroke="#518cbe" stroke-width="1.51"/><path d="M1035,606L1135,606L1032,498Z" fill="#2580b8" stroke="#2580b8" stroke-width="1.51"/><path d="M1030,813L1037,710L931,708Z" fill="#1570a8" stroke="#1570a8" stroke-width="1.51"/><path d="M616,816L718,816L724,714Z" fill="#4d83b0" stroke="#4d83b0" stroke-width="1.51"/><path d="M616,816L724,714L613,707Z" fill="#5588b7" stroke="#5588b7" stroke-width="1.51"/><path d="M513,608L511,714L613,707Z" fill="#6a95c6" stroke="#6a95c6" stroke-width="1.51"/><path d="M404,707L511,714L513,608Z" fill="#7399c8" stroke="#7399c8" stroke-width="1.51"/><path d="M1033,87L928,86L926,185Z" fill="#97b4d6" stroke="#97b4d6" stroke-width="1.51"/><path d="M408,500L409,602L510,503Z" fill="#88afd3" stroke="#88afd3" stroke-width="1.51"/><path d="M404,707L409,602L298,608Z" fill="#84a4cd" stroke="#84a4cd" stroke-width="1.51"/><path d="M1037,710L1135,606L1035,606Z" fill="#1576b3" stroke="#1576b3" stroke-width="1.51"/><path d="M721,79L614,82L616,183Z" fill="#bbcce3" stroke="#bbcce3" stroke-width="1.51"/><path d="M1142,395L1137,288L1033,398Z" fill="#6392c2" stroke="#6392c2" stroke-width="1.51"/><path d="M508,190L404,290L507,295Z" fill="#bdc7e1" stroke="#bdc7e1" stroke-width="1.51"/><path d="M406,188L404,290L508,190Z" fill="#c8cce4" stroke="#c8cce4" stroke-width="1.51"/><path d="M511,714L616,816L613,707Z" fill="#608cb9" stroke="#608cb9" stroke-width="1.51"/><path d="M829,812L933,820L931,708Z" fill="#2275a7" stroke="#2275a7" stroke-width="1.51"/><path d="M927,920L933,820L829,812Z" fill="#206b97" stroke="#206b97" stroke-width="1.51"/><path d="M821,923L829,812L718,816Z" fill="#37719b" stroke="#37719b" stroke-width="1.51"/><path d="M824,-26L722,-20L826,80Z" fill="#b2c9e2" stroke="#b2c9e2" stroke-width="1.51"/><path d="M1035,184L1033,87L926,185Z" fill="#90add3" stroke="#90add3" stroke-width="1.51"/><path d="M1135,87L1033,87L1035,184Z" fill="#90aad1" stroke="#90aad1" stroke-width="1.51"/><path d="M614,82L514,81L616,183Z" fill="#c4cfe5" stroke="#c4cfe5" stroke-width="1.51"/><path d="M612,-22L514,81L614,82Z" fill="#cad4e7" stroke="#cad4e7" stroke-width="1.51"/><path d="M933,820L1030,813L931,708Z" fill="#1a6fa4" stroke="#1a6fa4" stroke-width="1.51"/><path d="M1037,710L1139,712L1135,606Z" fill="#056ead" stroke="#056ead" stroke-width="1.51"/><path d="M403,82L406,188L508,190Z" fill="#d0d3e7" stroke="#d0d3e7" stroke-width="1.51"/><path d="M1137,288L1140,189L1035,184Z" fill="#819ec9" stroke="#819ec9" stroke-width="1.51"/><path d="M1244,295L1140,189L1137,288Z" fill="#7896c0" stroke="#7896c0" stroke-width="1.51"/><path d="M409,602L404,707L513,608Z" fill="#7ba0cb" stroke="#7ba0cb" stroke-width="1.51"/><path d="M511,714L507,814L616,816Z" fill="#648ab4" stroke="#648ab4" stroke-width="1.51"/><path d="M297,501L409,602L408,500Z" fill="#91b3d5" stroke="#91b3d5" stroke-width="1.51"/><path d="M297,501L408,500L405,401Z" fill="#a0bad9" stroke="#a0bad9" stroke-width="1.51"/><path d="M1141,812L1139,712L1037,710Z" fill="#0467a2" stroke="#0467a2" stroke-width="1.51"/><path d="M1245,503L1240,399L1140,499Z" fill="#4482b2" stroke="#4482b2" stroke-width="1.51"/><path d="M1140,499L1240,399L1142,395Z" fill="#4f87b7" stroke="#4f87b7" stroke-width="1.51"/><path d="M404,707L507,814L511,714Z" fill="#6f91bc" stroke="#6f91bc" stroke-width="1.51"/><path d="M721,79L612,-22L614,82Z" fill="#c1d0e6" stroke="#c1d0e6" stroke-width="1.51"/><path d="M826,80L722,-20L721,79Z" fill="#b3c9e2" stroke="#b3c9e2" stroke-width="1.51"/><path d="M824,-26L826,80L927,-18Z" fill="#a9c4de" stroke="#a9c4de" stroke-width="1.51"/><path d="M1142,395L1244,295L1137,288Z" fill="#6990bc" stroke="#6990bc" stroke-width="1.51"/><path d="M1245,503L1140,499L1239,607Z" fill="#2e7aad" stroke="#2e7aad" stroke-width="1.51"/><path d="M404,290L301,394L405,401Z" fill="#b5c4df" stroke="#b5c4df" stroke-width="1.51"/><path d="M301,289L301,394L404,290Z" fill="#c0c9e2" stroke="#c0c9e2" stroke-width="1.51"/><path d="M611,919L721,918L616,816Z" fill="#4b7498" stroke="#4b7498" stroke-width="1.51"/><path d="M616,816L721,918L718,816Z" fill="#48789f" stroke="#48789f" stroke-width="1.51"/><path d="M933,820L1035,925L1030,813Z" fill="#136192" stroke="#136192" stroke-width="1.51"/><path d="M927,-18L826,80L928,86Z" fill="#a2bfdc" stroke="#a2bfdc" stroke-width="1.51"/><path d="M1239,607L1140,499L1135,606Z" fill="#2279ae" stroke="#2279ae" stroke-width="1.51"/><path d="M301,394L297,501L405,401Z" fill="#aac0dd" stroke="#aac0dd" stroke-width="1.51"/><path d="M721,918L821,923L718,816Z" fill="#3a6e93" stroke="#3a6e93" stroke-width="1.51"/><path d="M1038,-24L927,-18L1033,87Z" fill="#9eb8d9" stroke="#9eb8d9" stroke-width="1.51"/><path d="M1033,87L927,-18L928,86Z" fill="#9db9d9" stroke="#9db9d9" stroke-width="1.51"/><path d="M1139,712L1239,607L1135,606Z" fill="#116fa9" stroke="#116fa9" stroke-width="1.51"/><path d="M514,81L403,82L508,190Z" fill="#d0d5e8" stroke="#d0d5e8" stroke-width="1.51"/><path d="M722,-20L612,-22L721,79Z" fill="#bfd0e5" stroke="#bfd0e5" stroke-width="1.51"/><path d="M715,-123L612,-22L722,-20Z" fill="#c1d1e6" stroke="#c1d1e6" stroke-width="1.51"/><path d="M1240,399L1244,295L1142,395Z" fill="#5f8bb7" stroke="#5f8bb7" stroke-width="1.51"/><path d="M1351,394L1244,295L1240,399Z" fill="#5d86af" stroke="#5d86af" stroke-width="1.51"/><path d="M191,400L198,502L297,501Z" fill="#abc3de" stroke="#abc3de" stroke-width="1.51"/><path d="M406,188L301,289L404,290Z" fill="#cacee4" stroke="#cacee4" stroke-width="1.51"/><path d="M296,184L301,289L406,188Z" fill="#d2d3e7" stroke="#d2d3e7" stroke-width="1.51"/><path d="M821,923L927,920L829,812Z" fill="#27678f" stroke="#27678f" stroke-width="1.51"/><path d="M1030,813L1141,812L1037,710Z" fill="#0767a0" stroke="#0767a0" stroke-width="1.51"/><path d="M507,814L611,919L616,816Z" fill="#597ea2" stroke="#597ea2" stroke-width="1.51"/><path d="M721,918L723,1023L821,923Z" fill="#396b90" stroke="#396b90" stroke-width="1.51"/><path d="M404,707L403,816L507,814Z" fill="#7290b8" stroke="#7290b8" stroke-width="1.51"/><path d="M507,814L508,922L611,919Z" fill="#5a799b" stroke="#5a799b" stroke-width="1.51"/><path d="M297,501L298,608L409,602Z" fill="#8eb0d4" stroke="#8eb0d4" stroke-width="1.51"/><path d="M1140,189L1135,87L1035,184Z" fill="#8aa4cc" stroke="#8aa4cc" stroke-width="1.51"/><path d="M1247,184L1135,87L1140,189Z" fill="#889fc6" stroke="#889fc6" stroke-width="1.51"/><path d="M404,-19L403,82L514,81Z" fill="#dadcec" stroke="#dadcec" stroke-width="1.51"/><path d="M1139,712L1242,713L1239,607Z" fill="#0468a3" stroke="#0468a3" stroke-width="1.51"/><path d="M1134,917L1141,812L1030,813Z" fill="#045a8d" stroke="#045a8d" stroke-width="1.51"/><path d="M302,707L403,816L404,707Z" fill="#7d98c0" stroke="#7d98c0" stroke-width="1.51"/><path d="M612,-22L512,-21L514,81Z" fill="#d1d8eb" stroke="#d1d8eb" stroke-width="1.51"/><path d="M513,-126L512,-21L612,-22Z" fill="#d2d9eb" stroke="#d2d9eb" stroke-width="1.51"/><path d="M298,608L302,707L404,707Z" fill="#84a0cc" stroke="#84a0cc" stroke-width="1.51"/><path d="M1135,87L1038,-24L1033,87Z" fill="#97afd4" stroke="#97afd4" stroke-width="1.51"/><path d="M823,-129L715,-123L824,-26Z" fill="#b4cbe2" stroke="#b4cbe2" stroke-width="1.51"/><path d="M1141,812L1242,713L1139,712Z" fill="#04639c" stroke="#04639c" stroke-width="1.51"/><path d="M1344,604L1348,502L1245,503Z" fill="#2b729f" stroke="#2b729f" stroke-width="1.51"/><path d="M1135,87L1138,-20L1038,-24Z" fill="#98aed2" stroke="#98aed2" stroke-width="1.51"/><path d="M1244,295L1247,184L1140,189Z" fill="#7d96be" stroke="#7d96be" stroke-width="1.51"/><path d="M1347,289L1247,184L1244,295Z" fill="#748eb4" stroke="#748eb4" stroke-width="1.51"/><path d="M403,82L296,184L406,188Z" fill="#d8d7e9" stroke="#d8d7e9" stroke-width="1.51"/><path d="M191,400L297,501L301,394Z" fill="#b0c4df" stroke="#b0c4df" stroke-width="1.51"/><path d="M408,923L508,922L507,814Z" fill="#637c9c" stroke="#637c9c" stroke-width="1.51"/><path d="M615,1025L723,1023L721,918Z" fill="#447092" stroke="#447092" stroke-width="1.51"/><path d="M927,920L1035,925L933,820Z" fill="#165e8a" stroke="#165e8a" stroke-width="1.51"/><path d="M1141,812L1248,816L1242,713Z" fill="#045d93" stroke="#045d93" stroke-width="1.51"/><path d="M933,1029L1035,925L927,920Z" fill="#165d87" stroke="#165d87" stroke-width="1.51"/><path d="M827,1026L927,920L821,923Z" fill="#27658c" stroke="#27658c" stroke-width="1.51"/><path d="M824,-26L715,-123L722,-20Z" fill="#b8cde4" stroke="#b8cde4" stroke-width="1.51"/><path d="M823,-129L824,-26L933,-123Z" fill="#aac5df" stroke="#aac5df" stroke-width="1.51"/><path d="M297,501L198,502L298,608Z" fill="#9ab9d8" stroke="#9ab9d8" stroke-width="1.51"/><path d="M298,608L197,712L302,707Z" fill="#8aa4ce" stroke="#8aa4ce" stroke-width="1.51"/><path d="M191,400L301,394L199,296Z" fill="#c0cce4" stroke="#c0cce4" stroke-width="1.51"/><path d="M933,-123L824,-26L927,-18Z" fill="#a6c3dd" stroke="#a6c3dd" stroke-width="1.51"/><path d="M1245,503L1348,502L1240,399Z" fill="#427daa" stroke="#427daa" stroke-width="1.51"/><path d="M1344,604L1245,503L1239,607Z" fill="#2071a3" stroke="#2071a3" stroke-width="1.51"/><path d="M615,1025L721,918L611,919Z" fill="#4a7194" stroke="#4a7194" stroke-width="1.51"/><path d="M1348,502L1351,394L1240,399Z" fill="#4a7ca6" stroke="#4a7ca6" stroke-width="1.51"/><path d="M723,1023L827,1026L821,923Z" fill="#33698e" stroke="#33698e" stroke-width="1.51"/><path d="M199,296L301,394L301,289Z" fill="#c4cde4" stroke="#c4cde4" stroke-width="1.51"/><path d="M1038,-24L933,-123L927,-18Z" fill="#a1bcdb" stroke="#a1bcdb" stroke-width="1.51"/><path d="M1038,-24L1034,-125L933,-123Z" fill="#9fb8d9" stroke="#9fb8d9" stroke-width="1.51"/><path d="M1243,81L1138,-20L1135,87Z" fill="#92a8ca" stroke="#92a8ca" stroke-width="1.51"/><path d="M192,189L199,296L301,289Z" fill="#d4d6e9" stroke="#d4d6e9" stroke-width="1.51"/><path d="M1242,713L1344,604L1239,607Z" fill="#10689e" stroke="#10689e" stroke-width="1.51"/><path d="M512,-21L404,-19L514,81Z" fill="#d9dcec" stroke="#d9dcec" stroke-width="1.51"/><path d="M403,82L301,79L296,184Z" fill="#dfdded" stroke="#dfdded" stroke-width="1.51"/><path d="M296,184L192,189L301,289Z" fill="#d8d7e9" stroke="#d8d7e9" stroke-width="1.51"/><path d="M407,-130L404,-19L512,-21Z" fill="#dedfee" stroke="#dedfee" stroke-width="1.51"/><path d="M1035,925L1134,917L1030,813Z" fill="#065687" stroke="#065687" stroke-width="1.51"/><path d="M1242,713L1347,716L1344,604Z" fill="#045f96" stroke="#045f96" stroke-width="1.51"/><path d="M1137,1027L1134,917L1035,925Z" fill="#035281" stroke="#035281" stroke-width="1.51"/><path d="M715,-123L616,-128L612,-22Z" fill="#c5d3e8" stroke="#c5d3e8" stroke-width="1.51"/><path d="M823,-129L616,-128L715,-123Z" fill="#bccfe5" stroke="#bccfe5" stroke-width="1.51"/><path d="M1247,184L1243,81L1135,87Z" fill="#8ba0c4" stroke="#8ba0c4" stroke-width="1.51"/><path d="M1352,83L1243,81L1247,184Z" fill="#879bbc" stroke="#879bbc" stroke-width="1.51"/><path d="M1351,394L1347,289L1244,295Z" fill="#6385ab" stroke="#6385ab" stroke-width="1.51"/><path d="M404,-19L301,79L403,82Z" fill="#e2e0ee" stroke="#e2e0ee" stroke-width="1.51"/><path d="M723,1023L825,1132L827,1026Z" fill="#33698e" stroke="#33698e" stroke-width="1.51"/><path d="M511,1026L615,1025L611,919Z" fill="#547596" stroke="#547596" stroke-width="1.51"/><path d="M508,922L511,1026L611,919Z" fill="#597797" stroke="#597797" stroke-width="1.51"/><path d="M403,816L408,923L507,814Z" fill="#6b84a6" stroke="#6b84a6" stroke-width="1.51"/><path d="M303,925L408,923L403,816Z" fill="#6e819f" stroke="#6e819f" stroke-width="1.51"/><path d="M301,819L403,816L302,707Z" fill="#7d95bb" stroke="#7d95bb" stroke-width="1.51"/><path d="M197,712L301,819L302,707Z" fill="#859dc3" stroke="#859dc3" stroke-width="1.51"/><path d="M1242,925L1248,816L1141,812Z" fill="#045383" stroke="#045383" stroke-width="1.51"/><path d="M198,502L192,610L298,608Z" fill="#96b6d7" stroke="#96b6d7" stroke-width="1.51"/><path d="M90,503L192,610L198,502Z" fill="#a1bedb" stroke="#a1bedb" stroke-width="1.51"/><path d="M827,1026L933,1029L927,920Z" fill="#1d638a" stroke="#1d638a" stroke-width="1.51"/><path d="M926,1131L933,1029L827,1026Z" fill="#1d638a" stroke="#1d638a" stroke-width="1.51"/><path d="M1142,-128L1034,-125L1038,-24Z" fill="#9bb2d6" stroke="#9bb2d6" stroke-width="1.51"/><path d="M933,-123L1034,-125L823,-129Z" fill="#a4c0dc" stroke="#a4c0dc" stroke-width="1.51"/><path d="M1142,-128L1038,-24L1138,-20Z" fill="#99afd3" stroke="#99afd3" stroke-width="1.51"/><path d="M404,-19L298,-21L301,79Z" fill="#e8e4f1" stroke="#e8e4f1" stroke-width="1.51"/><path d="M616,-128L513,-126L612,-22Z" fill="#ced8e9" stroke="#ced8e9" stroke-width="1.51"/><path d="M1450,289L1350,188L1347,289Z" fill="#6d84a4" stroke="#6d84a4" stroke-width="1.51"/><path d="M1347,289L1350,188L1247,184Z" fill="#778eb0" stroke="#778eb0" stroke-width="1.51"/><path d="M192,610L197,712L298,608Z" fill="#90abd2" stroke="#90abd2" stroke-width="1.51"/><path d="M1248,816L1347,716L1242,713Z" fill="#045c90" stroke="#045c90" stroke-width="1.51"/><path d="M1451,610L1456,500L1348,502Z" fill="#27678f" stroke="#27678f" stroke-width="1.51"/><path d="M1348,502L1457,400L1351,394Z" fill="#47759b" stroke="#47759b" stroke-width="1.51"/><path d="M192,85L192,189L296,184Z" fill="#e4e0ef" stroke="#e4e0ef" stroke-width="1.51"/><path d="M94,295L93,395L191,400Z" fill="#c7d2e7" stroke="#c7d2e7" stroke-width="1.51"/><path d="M408,923L511,1026L508,922Z" fill="#617a99" stroke="#617a99" stroke-width="1.51"/><path d="M722,1134L825,1132L723,1023Z" fill="#396b90" stroke="#396b90" stroke-width="1.51"/><path d="M407,1028L511,1026L408,923Z" fill="#657c9a" stroke="#657c9a" stroke-width="1.51"/><path d="M1134,917L1242,925L1141,812Z" fill="#03507e" stroke="#03507e" stroke-width="1.51"/><path d="M933,1029L1033,1029L1035,925Z" fill="#115a86" stroke="#115a86" stroke-width="1.51"/><path d="M1352,-21L1245,-23L1243,81Z" fill="#90a2bf" stroke="#90a2bf" stroke-width="1.51"/><path d="M1243,81L1245,-23L1138,-20Z" fill="#94a7c8" stroke="#94a7c8" stroke-width="1.51"/><path d="M301,79L192,85L296,184Z" fill="#e5e1ef" stroke="#e5e1ef" stroke-width="1.51"/><path d="M304,-130L298,-21L404,-19Z" fill="#e9e5f1" stroke="#e9e5f1" stroke-width="1.51"/><path d="M1137,1027L1242,925L1134,917Z" fill="#034e7a" stroke="#034e7a" stroke-width="1.51"/><path d="M1248,816L1346,819L1347,716Z" fill="#035585" stroke="#035585" stroke-width="1.51"/><path d="M195,917L303,925L301,819Z" fill="#7887a2" stroke="#7887a2" stroke-width="1.51"/><path d="M301,819L303,925L403,816Z" fill="#7689a9" stroke="#7689a9" stroke-width="1.51"/><path d="M191,400L90,503L198,502Z" fill="#b0c7e0" stroke="#b0c7e0" stroke-width="1.51"/><path d="M192,610L90,710L197,712Z" fill="#91aad1" stroke="#91aad1" stroke-width="1.51"/><path d="M94,295L191,400L199,296Z" fill="#ccd3e8" stroke="#ccd3e8" stroke-width="1.51"/><path d="M513,-126L407,-130L512,-21Z" fill="#dadded" stroke="#dadded" stroke-width="1.51"/><path d="M616,-128L407,-130L513,-126Z" fill="#d6dbec" stroke="#d6dbec" stroke-width="1.51"/><path d="M823,-129L407,-130L616,-128Z" fill="#c9d6e8" stroke="#c9d6e8" stroke-width="1.51"/><path d="M1034,-125L1142,-128L823,-129Z" fill="#9fb8d9" stroke="#9fb8d9" stroke-width="1.51"/><path d="M1245,-23L1142,-128L1138,-20Z" fill="#96aacc" stroke="#96aacc" stroke-width="1.51"/><path d="M192,189L94,295L199,296Z" fill="#d9daeb" stroke="#d9daeb" stroke-width="1.51"/><path d="M195,-23L192,85L301,79Z" fill="#ede8f3" stroke="#ede8f3" stroke-width="1.51"/><path d="M1245,-23L1244,-129L1142,-128Z" fill="#95a8c8" stroke="#95a8c8" stroke-width="1.51"/><path d="M1350,188L1352,83L1247,184Z" fill="#8094b4" stroke="#8094b4" stroke-width="1.51"/><path d="M1450,87L1352,83L1350,188Z" fill="#7f8faa" stroke="#7f8faa" stroke-width="1.51"/><path d="M1345,923L1346,819L1248,816Z" fill="#034b75" stroke="#034b75" stroke-width="1.51"/><path d="M1451,610L1348,502L1344,604Z" fill="#1c6793" stroke="#1c6793" stroke-width="1.51"/><path d="M93,395L90,503L191,400Z" fill="#b9cce3" stroke="#b9cce3" stroke-width="1.51"/><path d="M197,712L195,815L301,819Z" fill="#859bbe" stroke="#859bbe" stroke-width="1.51"/><path d="M90,710L195,815L197,712Z" fill="#8da3c6" stroke="#8da3c6" stroke-width="1.51"/><path d="M1451,610L1344,604L1347,716Z" fill="#0e5d8e" stroke="#0e5d8e" stroke-width="1.51"/><path d="M1351,394L1450,289L1347,289Z" fill="#5f7ea0" stroke="#5f7ea0" stroke-width="1.51"/><path d="M1033,1029L1137,1027L1035,925Z" fill="#065483" stroke="#065483" stroke-width="1.51"/><path d="M1456,500L1457,400L1348,502Z" fill="#3b6e94" stroke="#3b6e94" stroke-width="1.51"/><path d="M303,925L407,1028L408,923Z" fill="#6d809c" stroke="#6d809c" stroke-width="1.51"/><path d="M722,1134L723,1023L617,1131Z" fill="#447092" stroke="#447092" stroke-width="1.51"/><path d="M933,1029L1033,1134L1033,1029Z" fill="#115a86" stroke="#115a86" stroke-width="1.51"/><path d="M1033,1029L1135,1130L1137,1027Z" fill="#035281" stroke="#035281" stroke-width="1.51"/><path d="M723,1023L615,1025L617,1131Z" fill="#4a7194" stroke="#4a7194" stroke-width="1.51"/><path d="M617,1131L615,1025L513,1132Z" fill="#547596" stroke="#547596" stroke-width="1.51"/><path d="M93,395L-11,499L90,503Z" fill="#b6cbe3" stroke="#b6cbe3" stroke-width="1.51"/><path d="M91,184L94,295L192,189Z" fill="#e1deed" stroke="#e1deed" stroke-width="1.51"/><path d="M1457,400L1450,289L1351,394Z" fill="#557799" stroke="#557799" stroke-width="1.51"/><path d="M1452,714L1451,610L1347,716Z" fill="#035585" stroke="#035585" stroke-width="1.51"/><path d="M825,1132L926,1131L827,1026Z" fill="#26658c" stroke="#26658c" stroke-width="1.51"/><path d="M1033,1134L926,1131L825,1132Z" fill="#196089" stroke="#196089" stroke-width="1.51"/><path d="M90,503L89,607L192,610Z" fill="#9ebbda" stroke="#9ebbda" stroke-width="1.51"/><path d="M513,1132L615,1025L511,1026Z" fill="#587797" stroke="#587797" stroke-width="1.51"/><path d="M1557,293L1451,188L1450,289Z" fill="#697d9b" stroke="#697d9b" stroke-width="1.51"/><path d="M1450,289L1451,188L1350,188Z" fill="#7183a0" stroke="#7183a0" stroke-width="1.51"/><path d="M192,85L91,184L192,189Z" fill="#e8e4f1" stroke="#e8e4f1" stroke-width="1.51"/><path d="M-17,399L-11,499L93,395Z" fill="#bfd0e6" stroke="#bfd0e6" stroke-width="1.51"/><path d="M90,503L-14,605L89,607Z" fill="#a1bedc" stroke="#a1bedc" stroke-width="1.51"/><path d="M89,81L91,184L192,85Z" fill="#eee9f4" stroke="#eee9f4" stroke-width="1.51"/><path d="M195,-23L301,79L298,-21Z" fill="#eee9f3" stroke="#eee9f3" stroke-width="1.51"/><path d="M1453,819L1452,714L1347,716Z" fill="#034e7b" stroke="#034e7b" stroke-width="1.51"/><path d="M1554,608L1558,504L1456,500Z" fill="#26658c" stroke="#26658c" stroke-width="1.51"/><path d="M1453,819L1347,716L1346,819Z" fill="#044f7b" stroke="#044f7b" stroke-width="1.51"/><path d="M195,815L195,917L301,819Z" fill="#7e90ad" stroke="#7e90ad" stroke-width="1.51"/><path d="M89,607L90,710L192,610Z" fill="#97b1d5" stroke="#97b1d5" stroke-width="1.51"/><path d="M407,1028L513,1132L511,1026Z" fill="#617a99" stroke="#617a99" stroke-width="1.51"/><path d="M617,1131L513,1132L722,1134Z" fill="#4e7395" stroke="#4e7395" stroke-width="1.51"/><path d="M722,1134L1033,1134L825,1132Z" fill="#26658c" stroke="#26658c" stroke-width="1.51"/><path d="M926,1131L1033,1134L933,1029Z" fill="#165d87" stroke="#165d87" stroke-width="1.51"/><path d="M1243,1027L1345,923L1242,925Z" fill="#034770" stroke="#034770" stroke-width="1.51"/><path d="M407,-130L304,-130L404,-19Z" fill="#e6e3f0" stroke="#e6e3f0" stroke-width="1.51"/><path d="M1142,-128L1244,-129L823,-129Z" fill="#9bb2d6" stroke="#9bb2d6" stroke-width="1.51"/><path d="M823,-129L1561,-130L407,-130Z" fill="#a4c0dc" stroke="#a4c0dc" stroke-width="1.51"/><path d="M1348,-128L1244,-129L1245,-23Z" fill="#91a2c0" stroke="#91a2c0" stroke-width="1.51"/><path d="M1352,-21L1243,81L1352,83Z" fill="#8a9bb8" stroke="#8a9bb8" stroke-width="1.51"/><path d="M196,-128L195,-23L298,-21Z" fill="#f1ecf5" stroke="#f1ecf5" stroke-width="1.51"/><path d="M1450,87L1352,-21L1352,83Z" fill="#8694ad" stroke="#8694ad" stroke-width="1.51"/><path d="M1243,1027L1242,925L1137,1027Z" fill="#034c77" stroke="#034c77" stroke-width="1.51"/><path d="M1242,925L1345,923L1248,816Z" fill="#034872" stroke="#034872" stroke-width="1.51"/><path d="M93,917L195,917L195,815Z" fill="#7f8ea7" stroke="#7f8ea7" stroke-width="1.51"/><path d="M303,925L298,1030L407,1028Z" fill="#71829d" stroke="#71829d" stroke-width="1.51"/><path d="M407,1028L403,1134L513,1132Z" fill="#657c9a" stroke="#657c9a" stroke-width="1.51"/><path d="M1244,1129L1243,1027L1137,1027Z" fill="#034c77" stroke="#034c77" stroke-width="1.51"/><path d="M198,1030L298,1030L303,925Z" fill="#76859f" stroke="#76859f" stroke-width="1.51"/><path d="M1451,188L1450,87L1350,188Z" fill="#7989a4" stroke="#7989a4" stroke-width="1.51"/><path d="M1561,188L1450,87L1451,188Z" fill="#7887a0" stroke="#7887a0" stroke-width="1.51"/><path d="M1033,1134L1135,1130L1033,1029Z" fill="#065483" stroke="#065483" stroke-width="1.51"/><path d="M195,-23L89,81L192,85Z" fill="#f2ecf5" stroke="#f2ecf5" stroke-width="1.51"/><path d="M-17,399L93,395L-11,292Z" fill="#cdd7e9" stroke="#cdd7e9" stroke-width="1.51"/><path d="M89,-26L89,81L195,-23Z" fill="#f7f0f7" stroke="#f7f0f7" stroke-width="1.51"/><path d="M1345,923L1453,819L1346,819Z" fill="#03446b" stroke="#03446b" stroke-width="1.51"/><path d="M1554,608L1456,500L1451,610Z" fill="#1b618a" stroke="#1b618a" stroke-width="1.51"/><path d="M1456,500L1558,504L1457,400Z" fill="#3b6c90" stroke="#3b6c90" stroke-width="1.51"/><path d="M1456,922L1453,819L1345,923Z" fill="#023b5d" stroke="#023b5d" stroke-width="1.51"/><path d="M195,917L198,1030L303,925Z" fill="#7887a0" stroke="#7887a0" stroke-width="1.51"/><path d="M90,710L89,815L195,815Z" fill="#8ca0c1" stroke="#8ca0c1" stroke-width="1.51"/><path d="M-13,712L89,815L90,710Z" fill="#92a7c9" stroke="#92a7c9" stroke-width="1.51"/><path d="M298,1030L403,1134L407,1028Z" fill="#6e809c" stroke="#6e809c" stroke-width="1.51"/><path d="M513,1132L403,1134L722,1134Z" fill="#587797" stroke="#587797" stroke-width="1.51"/><path d="M89,607L-13,712L90,710Z" fill="#97aed4" stroke="#97aed4" stroke-width="1.51"/><path d="M93,395L94,295L-11,292Z" fill="#d2d8ea" stroke="#d2d8ea" stroke-width="1.51"/><path d="M1554,608L1451,610L1452,714Z" fill="#0c5785" stroke="#0c5785" stroke-width="1.51"/><path d="M1457,400L1557,293L1450,289Z" fill="#5b7897" stroke="#5b7897" stroke-width="1.51"/><path d="M-11,292L94,295L91,184Z" fill="#dfdeed" stroke="#dfdeed" stroke-width="1.51"/><path d="M1558,504L1562,395L1457,400Z" fill="#436f92" stroke="#436f92" stroke-width="1.51"/><path d="M1554,715L1554,608L1452,714Z" fill="#035382" stroke="#035382" stroke-width="1.51"/><path d="M-12,186L-11,292L91,184Z" fill="#e7e3f0" stroke="#e7e3f0" stroke-width="1.51"/><path d="M1562,395L1557,293L1457,400Z" fill="#547596" stroke="#547596" stroke-width="1.51"/><path d="M-11,499L-14,605L90,503Z" fill="#aac4df" stroke="#aac4df" stroke-width="1.51"/><path d="M-122,503L-14,605L-11,499Z" fill="#abc5e0" stroke="#abc5e0" stroke-width="1.51"/><path d="M1454,-22L1348,-128L1352,-21Z" fill="#8a97af" stroke="#8a97af" stroke-width="1.51"/><path d="M1352,-21L1348,-128L1245,-23Z" fill="#8e9fba" stroke="#8e9fba" stroke-width="1.51"/><path d="M1454,-22L1352,-21L1450,87Z" fill="#8693a9" stroke="#8693a9" stroke-width="1.51"/><path d="M304,-130L196,-128L298,-21Z" fill="#efe9f3" stroke="#efe9f3" stroke-width="1.51"/><path d="M1243,1027L1349,1024L1345,923Z" fill="#02446a" stroke="#02446a" stroke-width="1.51"/><path d="M1344,1129L1349,1024L1243,1027Z" fill="#02446a" stroke="#02446a" stroke-width="1.51"/><path d="M298,1030L297,1130L403,1134Z" fill="#71829d" stroke="#71829d" stroke-width="1.51"/><path d="M90,1025L198,1030L195,917Z" fill="#7d8ba2" stroke="#7d8ba2" stroke-width="1.51"/><path d="M1453,819L1554,715L1452,714Z" fill="#034c78" stroke="#034c78" stroke-width="1.51"/><path d="M1554,608L1662,506L1558,504Z" fill="#25658c" stroke="#25658c" stroke-width="1.51"/><path d="M1558,504L1662,506L1562,395Z" fill="#3a6c90" stroke="#3a6c90" stroke-width="1.51"/><path d="M1560,815L1554,715L1453,819Z" fill="#034972" stroke="#034972" stroke-width="1.51"/><path d="M-16,79L-12,186L89,81Z" fill="#f4edf6" stroke="#f4edf6" stroke-width="1.51"/><path d="M89,81L-12,186L91,184Z" fill="#eee9f3" stroke="#eee9f3" stroke-width="1.51"/><path d="M-11,292L-119,395L-17,399Z" fill="#ced8e9" stroke="#ced8e9" stroke-width="1.51"/><path d="M1558,80L1454,-22L1450,87Z" fill="#828ea4" stroke="#828ea4" stroke-width="1.51"/><path d="M89,815L93,917L195,815Z" fill="#8595b0" stroke="#8595b0" stroke-width="1.51"/><path d="M-12,815L93,917L89,815Z" fill="#8898b1" stroke="#8898b1" stroke-width="1.51"/><path d="M-116,606L-13,712L-14,605Z" fill="#9eb6d8" stroke="#9eb6d8" stroke-width="1.51"/><path d="M-14,605L-13,712L89,607Z" fill="#9db5d8" stroke="#9db5d8" stroke-width="1.51"/><path d="M1557,293L1561,188L1451,188Z" fill="#6f809c" stroke="#6f809c" stroke-width="1.51"/><path d="M1661,293L1561,188L1557,293Z" fill="#697d9b" stroke="#697d9b" stroke-width="1.51"/><path d="M1033,1134L1244,1129L1135,1130Z" fill="#03507d" stroke="#03507d" stroke-width="1.51"/><path d="M1135,1130L1244,1129L1137,1027Z" fill="#034e7a" stroke="#034e7a" stroke-width="1.51"/><path d="M94,-129L89,-26L195,-23Z" fill="#f8f1f8" stroke="#f8f1f8" stroke-width="1.51"/><path d="M1453,1022L1345,923L1349,1024Z" fill="#023d60" stroke="#023d60" stroke-width="1.51"/><path d="M1453,1022L1456,922L1345,923Z" fill="#023a5b" stroke="#023a5b" stroke-width="1.51"/><path d="M198,1030L297,1130L298,1030Z" fill="#76869f" stroke="#76869f" stroke-width="1.51"/><path d="M1454,-22L1457,-128L1348,-128Z" fill="#8794aa" stroke="#8794aa" stroke-width="1.51"/><path d="M1561,188L1558,80L1450,87Z" fill="#7c8aa1" stroke="#7c8aa1" stroke-width="1.51"/><path d="M-13,712L-12,815L89,815Z" fill="#92a4c4" stroke="#92a4c4" stroke-width="1.51"/><path d="M93,917L90,1025L195,917Z" fill="#7f8ca3" stroke="#7f8ca3" stroke-width="1.51"/><path d="M-115,819L-12,815L-13,712Z" fill="#93a5c4" stroke="#93a5c4" stroke-width="1.51"/><path d="M1558,917L1560,815L1453,819Z" fill="#023f63" stroke="#023f63" stroke-width="1.51"/><path d="M1666,606L1662,506L1554,608Z" fill="#1b6189" stroke="#1b6189" stroke-width="1.51"/><path d="M-13,-23L-16,79L89,81Z" fill="#faf2f8" stroke="#faf2f8" stroke-width="1.51"/><path d="M-117,288L-119,395L-11,292Z" fill="#d5dbeb" stroke="#d5dbeb" stroke-width="1.51"/><path d="M89,-26L-13,-23L89,81Z" fill="#fbf3f9" stroke="#fbf3f9" stroke-width="1.51"/><path d="M196,-128L94,-129L195,-23Z" fill="#f6f0f7" stroke="#f6f0f7" stroke-width="1.51"/><path d="M304,-130L94,-129L196,-128Z" fill="#f4eef6" stroke="#f4eef6" stroke-width="1.51"/><path d="M1244,1129L1344,1129L1243,1027Z" fill="#034770" stroke="#034770" stroke-width="1.51"/><path d="M1456,922L1558,917L1453,819Z" fill="#023a5b" stroke="#023a5b" stroke-width="1.51"/><path d="M1454,1133L1344,1129L1244,1129Z" fill="#024065" stroke="#024065" stroke-width="1.51"/><path d="M1666,606L1554,608L1660,711Z" fill="#0d5785" stroke="#0d5785" stroke-width="1.51"/><path d="M1562,395L1661,293L1557,293Z" fill="#5b7897" stroke="#5b7897" stroke-width="1.51"/><path d="M1561,188L1662,185L1558,80Z" fill="#7887a0" stroke="#7887a0" stroke-width="1.51"/><path d="M1454,1133L1453,1022L1349,1024Z" fill="#023a5b" stroke="#023a5b" stroke-width="1.51"/><path d="M-17,399L-122,503L-11,499Z" fill="#b9cde4" stroke="#b9cde4" stroke-width="1.51"/><path d="M-117,288L-11,292L-12,186Z" fill="#e2e1ef" stroke="#e2e1ef" stroke-width="1.51"/><path d="M1561,-22L1457,-128L1454,-22Z" fill="#8591a6" stroke="#8591a6" stroke-width="1.51"/><path d="M1348,-128L1561,-130L1244,-129Z" fill="#8a97af" stroke="#8a97af" stroke-width="1.51"/><path d="M-13,921L90,1025L93,917Z" fill="#838fa5" stroke="#838fa5" stroke-width="1.51"/><path d="M198,1030L193,1133L297,1130Z" fill="#7887a0" stroke="#7887a0" stroke-width="1.51"/><path d="M1662,506L1667,393L1562,395Z" fill="#446f92" stroke="#446f92" stroke-width="1.51"/><path d="M-119,395L-122,503L-17,399Z" fill="#bfd1e6" stroke="#bfd1e6" stroke-width="1.51"/><path d="M94,1129L193,1133L198,1030Z" fill="#7d8ba2" stroke="#7d8ba2" stroke-width="1.51"/><path d="M297,1130L193,1133L403,1134Z" fill="#74849e" stroke="#74849e" stroke-width="1.51"/><path d="M1667,393L1661,293L1562,395Z" fill="#547596" stroke="#547596" stroke-width="1.51"/><path d="M-122,503L-116,606L-14,605Z" fill="#a5c1dd" stroke="#a5c1dd" stroke-width="1.51"/><path d="M-12,815L-13,921L93,917Z" fill="#8693aa" stroke="#8693aa" stroke-width="1.51"/><path d="M-119,395L-123,185L-122,503Z" fill="#ced8e9" stroke="#ced8e9" stroke-width="1.51"/><path d="M-123,185L-117,288L-12,186Z" fill="#e8e4f1" stroke="#e8e4f1" stroke-width="1.51"/><path d="M1662,506L1666,606L1667,393Z" fill="#31688e" stroke="#31688e" stroke-width="1.51"/><path d="M1660,711L1554,608L1554,715Z" fill="#035382" stroke="#035382" stroke-width="1.51"/><path d="M-115,83L-123,185L-12,186Z" fill="#f0ebf4" stroke="#f0ebf4" stroke-width="1.51"/><path d="M-17,-131L-13,-23L89,-26Z" fill="#fef6fa" stroke="#fef6fa" stroke-width="1.51"/><path d="M1560,815L1660,711L1554,715Z" fill="#034d78" stroke="#034d78" stroke-width="1.51"/><path d="M1560,1027L1558,917L1456,922Z" fill="#023858" stroke="#023858" stroke-width="1.51"/><path d="M1558,80L1561,-22L1454,-22Z" fill="#8490a6" stroke="#8490a6" stroke-width="1.51"/><path d="M1662,80L1561,-22L1558,80Z" fill="#828ea4" stroke="#828ea4" stroke-width="1.51"/><path d="M90,1025L94,1129L198,1030Z" fill="#7f8ca3" stroke="#7f8ca3" stroke-width="1.51"/><path d="M-115,819L-13,921L-12,815Z" fill="#8b99b2" stroke="#8b99b2" stroke-width="1.51"/><path d="M1662,818L1660,711L1560,815Z" fill="#034973" stroke="#034973" stroke-width="1.51"/><path d="M1661,293L1662,185L1561,188Z" fill="#6f819c" stroke="#6f819c" stroke-width="1.51"/><path d="M1667,393L1662,185L1661,293Z" fill="#637b99" stroke="#637b99" stroke-width="1.51"/><path d="M-116,606L-121,708L-13,712Z" fill="#9ab1d6" stroke="#9ab1d6" stroke-width="1.51"/><path d="M-122,503L-121,708L-116,606Z" fill="#a1bcdb" stroke="#a1bcdb" stroke-width="1.51"/><path d="M-117,288L-123,185L-119,395Z" fill="#dcdeed" stroke="#dcdeed" stroke-width="1.51"/><path d="M-115,83L-12,186L-16,79Z" fill="#f5eef6" stroke="#f5eef6" stroke-width="1.51"/><path d="M-119,-25L-115,83L-16,79Z" fill="#fbf3f9" stroke="#fbf3f9" stroke-width="1.51"/><path d="M1561,-22L1561,-130L1457,-128Z" fill="#8591a6" stroke="#8591a6" stroke-width="1.51"/><path d="M1662,185L1662,80L1558,80Z" fill="#7c8aa2" stroke="#7c8aa2" stroke-width="1.51"/><path d="M1665,-23L1662,80L1662,185Z" fill="#7f8ca3" stroke="#7f8ca3" stroke-width="1.51"/><path d="M-13,1024L94,1129L90,1025Z" fill="#838fa5" stroke="#838fa5" stroke-width="1.51"/><path d="M-121,708L-115,819L-13,712Z" fill="#95a9ca" stroke="#95a9ca" stroke-width="1.51"/><path d="M-13,1024L90,1025L-13,921Z" fill="#8490a6" stroke="#8490a6" stroke-width="1.51"/><path d="M1558,917L1662,818L1560,815Z" fill="#023f63" stroke="#023f63" stroke-width="1.51"/><path d="M1660,711L1662,818L1666,606Z" fill="#03507d" stroke="#03507d" stroke-width="1.51"/><path d="M1664,922L1662,818L1558,917Z" fill="#023a5b" stroke="#023a5b" stroke-width="1.51"/><path d="M1560,1027L1456,922L1453,1022Z" fill="#023858" stroke="#023858" stroke-width="1.51"/><path d="M1344,1129L1454,1133L1349,1024Z" fill="#023d60" stroke="#023d60" stroke-width="1.51"/><path d="M1033,1134L1454,1133L1244,1129Z" fill="#034a73" stroke="#034a73" stroke-width="1.51"/><path d="M-121,925L-13,1024L-13,921Z" fill="#8591a6" stroke="#8591a6" stroke-width="1.51"/><path d="M1662,-129L1561,-130L1561,-22Z" fill="#8591a6" stroke="#8591a6" stroke-width="1.51"/><path d="M1457,-128L1561,-130L1348,-128Z" fill="#8591a6" stroke="#8591a6" stroke-width="1.51"/><path d="M1244,-129L1561,-130L823,-129Z" fill="#95a8c8" stroke="#95a8c8" stroke-width="1.51"/><path d="M-13,-23L-119,-25L-16,79Z" fill="#fef6fa" stroke="#fef6fa" stroke-width="1.51"/><path d="M94,-129L-17,-131L89,-26Z" fill="#fcf4f9" stroke="#fcf4f9" stroke-width="1.51"/><path d="M304,-130L-17,-131L94,-129Z" fill="#f8f1f8" stroke="#f8f1f8" stroke-width="1.51"/><path d="M407,-130L-17,-131L304,-130Z" fill="#f1ecf5" stroke="#f1ecf5" stroke-width="1.51"/><path d="M1561,-130L-17,-131L407,-130Z" fill="#c5d3e8" stroke="#c5d3e8" stroke-width="1.51"/><path d="M1554,1130L1560,1027L1453,1022Z" fill="#023858" stroke="#023858" stroke-width="1.51"/><path d="M1667,393L1665,-23L1662,185Z" fill="#74849e" stroke="#74849e" stroke-width="1.51"/><path d="M1662,80L1665,-23L1561,-22Z" fill="#8490a6" stroke="#8490a6" stroke-width="1.51"/><path d="M-115,-125L-119,-25L-13,-23Z" fill="#fff7fb" stroke="#fff7fb" stroke-width="1.51"/><path d="M-115,83L-119,-25L-123,185Z" fill="#f8f1f8" stroke="#f8f1f8" stroke-width="1.51"/><path d="M1661,1023L1664,922L1558,917Z" fill="#023858" stroke="#023858" stroke-width="1.51"/><path d="M1662,818L1664,922L1666,606Z" fill="#034973" stroke="#034973" stroke-width="1.51"/><path d="M-115,819L-121,925L-13,921Z" fill="#8793a9" stroke="#8793a9" stroke-width="1.51"/><path d="M-13,1024L-16,1133L94,1129Z" fill="#8490a6" stroke="#8490a6" stroke-width="1.51"/><path d="M-121,708L-121,925L-115,819Z" fill="#8fa0bc" stroke="#8fa0bc" stroke-width="1.51"/><path d="M-122,503L-121,925L-121,708Z" fill="#98adcf" stroke="#98adcf" stroke-width="1.51"/><path d="M-122,1132L-121,925L-122,503Z" fill="#8b99b2" stroke="#8b99b2" stroke-width="1.51"/><path d="M1560,1027L1661,1023L1558,917Z" fill="#023858" stroke="#023858" stroke-width="1.51"/><path d="M1454,1133L1554,1130L1453,1022Z" fill="#023858" stroke="#023858" stroke-width="1.51"/><path d="M-117,1029L-16,1133L-13,1024Z" fill="#8591a6" stroke="#8591a6" stroke-width="1.51"/><path d="M94,1129L-16,1133L193,1133Z" fill="#818ea4" stroke="#818ea4" stroke-width="1.51"/><path d="M193,1133L-16,1133L403,1134Z" fill="#7b89a1" stroke="#7b89a1" stroke-width="1.51"/><path d="M-17,-131L-115,-125L-13,-23Z" fill="#fff7fb" stroke="#fff7fb" stroke-width="1.51"/><path d="M1665,-23L1662,-129L1561,-22Z" fill="#8591a6" stroke="#8591a6" stroke-width="1.51"/><path d="M1666,1129L1661,1023L1560,1027Z" fill="#023858" stroke="#023858" stroke-width="1.51"/><path d="M-121,925L-117,1029L-13,1024Z" fill="#8591a6" stroke="#8591a6" stroke-width="1.51"/><path d="M1554,1130L1666,1129L1560,1027Z" fill="#023858" stroke="#023858" stroke-width="1.51"/><path d="M1661,1023L1666,1129L1664,922Z" fill="#023858" stroke="#023858" stroke-width="1.51"/><path d="M1664,922L1666,1129L1666,606Z" fill="#023a5b" stroke="#023a5b" stroke-width="1.51"/><path d="M1666,606L1666,1129L1667,393Z" fill="#03507d" stroke="#03507d" stroke-width="1.51"/><path d="M1454,1133L1666,1129L1554,1130Z" fill="#023858" stroke="#023858" stroke-width="1.51"/><path d="M-121,925L-122,1132L-117,1029Z" fill="#8591a6" stroke="#8591a6" stroke-width="1.51"/><path d="M-117,1029L-122,1132L-16,1133Z" fill="#8591a6" stroke="#8591a6" stroke-width="1.51"/><path d="M-123,185L-122,1132L-122,503Z" fill="#a1bbdb" stroke="#a1bbdb" stroke-width="1.51"/></svg>